<?xml version="1.0" encoding="UTF-8"?>
<svg width="394px" height="95px" viewBox="0 0 394 95" version="1.1" xmlns="http://www.w3.org/2000/svg" xmlns:xlink="http://www.w3.org/1999/xlink">
    <!-- Generator: Sketch 51 (57462) - http://www.bohemiancoding.com/sketch -->
    <title>Group</title>
    <desc>Created with Sketch.</desc>
    <defs></defs>
    <g id="Home" stroke="none" stroke-width="1" fill="none" fill-rule="evenodd">
        <g id="Page-1-Copy" transform="translate(-1336.000000, -348.000000)">
            <rect fill="#FFFFFF" x="0" y="0" width="1920" height="1080"></rect>
            <g id="Group" transform="translate(1335.000000, 348.000000)">
                <path d="M26.9570324,86.2953583 C14.8943591,95.2078848 1.5318926,94.9987223 1.5318926,94.9987223 C0.908174488,95.0209112 0.798331304,94.7334555 1.2906682,94.3715822 C1.2906682,94.3715822 9.95668387,88.6353909 11.3890929,78.7145222 C12.1756201,73.2670329 12.3274785,64.4982722 12.3045126,57.6980612 C12.2683218,57.0061669 12.25,56.3095426 12.25,55.6086406 L12.25,52.3085555 C12.2047601,49.5958226 12.148903,47.857112 12.148903,47.857112 C12.148903,47.857112 12.1835881,47.8911232 12.25,47.9571852 L12.25,40.1055833 C12.25,18.3639582 29.8818674,0.733546996 51.6318781,0.733546996 L355.368122,0.733546996 C377.115824,0.733546996 394.75,18.3610081 394.75,40.1055833 L394.75,55.6086406 C394.75,77.3502657 377.118133,94.9806769 355.368122,94.9806769 L51.6318781,94.9806769 C42.2909453,94.9806769 33.7088835,91.7287295 26.9570349,86.2953604 Z" id="Bubble" fill="#E5E6EA"></path>
                <text id="Taxin'-Tammy-wants-y" font-family="HelveticaNeue-Light, Helvetica Neue" font-size="30" font-weight="300" fill="#000000">
                    <tspan x="44" y="41">Taxin' Tammy wants you</tspan>
                    <tspan x="44" y="76">to pay higher taxes!</tspan>
                </text>
            </g>
        </g>
    </g>
</svg>