<?xml version="1.0" encoding="UTF-8"?>
<svg width="420px" height="164px" viewBox="0 0 420 164" version="1.1" xmlns="http://www.w3.org/2000/svg" xmlns:xlink="http://www.w3.org/1999/xlink">
    <!-- Generator: Sketch 51 (57462) - http://www.bohemiancoding.com/sketch -->
    <title>Group Copy</title>
    <desc>Created with Sketch.</desc>
    <defs></defs>
    <g id="Home" stroke="none" stroke-width="1" fill="none" fill-rule="evenodd">
        <g id="Page-1-Copy" transform="translate(-1335.000000, -580.000000)">
            <rect fill="#FFFFFF" x="0" y="0" width="1920" height="1080"></rect>
            <g id="Group-Copy" transform="translate(1335.000000, 580.000000)">
                <path d="M24.1267465,152.865207 C12.3641194,164.29079 0.638538715,163.997579 0.638538715,163.997579 C0.0184795662,164.03165 -0.166209222,163.66201 0.228620457,163.195192 C0.228620457,163.195192 9.70460742,152.92139 11.231949,135.662218 C11.7869007,129.391187 12.0455325,120.590163 12.1499125,111.925564 L12.1499125,89.724193 C12.1016744,85.0048963 12.0421153,81.98009 12.0421153,81.98009 C12.0421153,81.98009 12.0790991,82.0392589 12.1499125,82.1541858 L12.1499125,39.3768305 C12.1499125,17.6244333 29.7828111,0 51.5340938,0 L380.615819,0 C402.377052,0 420,17.6296075 420,39.3768305 L420,124.58335 C420,146.335747 402.367101,163.96018 380.615819,163.96018 L51.5340938,163.96018 C40.8783083,163.96018 31.2147801,159.73304 24.1267465,152.865207 Z" id="Bubble" fill="#E5E6EA"></path>
                <text id="She's-a-D.C.-liberal" font-family="HelveticaNeue-Light, Helvetica Neue" font-size="30" font-weight="300" fill="#000000">
                    <tspan x="43" y="39">She's a D.C. liberal! Did </tspan>
                    <tspan x="43" y="74">you know she makes </tspan>
                    <tspan x="43" y="109">$122,000 MORE than you </tspan>
                    <tspan x="43" y="144">do?... and YOU pay for it!</tspan>
                </text>
            </g>
        </g>
    </g>
</svg>